<?xml version="1.0" encoding="utf-8"?>
<!-- Generator: Adobe Illustrator 19.0.0, SVG Export Plug-In . SVG Version: 6.00 Build 0)  -->
<svg version="1.1" id="Layer_1" xmlns="http://www.w3.org/2000/svg" xmlns:xlink="http://www.w3.org/1999/xlink" x="0px" y="0px"
	 viewBox="-281 404.9 32 32" style="enable-background:new -281 404.9 32 32;" xml:space="preserve">
<style type="text/css">
	.st0{fill:#FFFFFF;}
</style>
<g>
	<path class="st0" d="M-270.6,418.4v-3.9c0-3.3,2.7-5.9,5.9-5.9c3.3,0,5.9,2.7,5.9,5.9h1c0-3.8-3.1-6.9-6.9-6.9
		c-3.8,0-6.9,3.1-6.9,6.9v3.9h-4.2v16h22.2v-16H-270.6z M-254.6,433.4h-20.2v-14h20.2V433.4z"/>
	<path class="st0" d="M-265.2,427.1v2.5h1v-2.5c1-0.2,1.7-1.1,1.7-2.2c0-1.2-1-2.2-2.2-2.2c-1.2,0-2.2,1-2.2,2.2
		C-267,426-266.2,426.9-265.2,427.1z M-264.7,423.7c0.7,0,1.2,0.6,1.2,1.2s-0.6,1.2-1.2,1.2s-1.2-0.6-1.2-1.2
		S-265.4,423.7-264.7,423.7z"/>
</g>
</svg>